<svg width="25" height="25" viewBox="0 0 25 25" fill="none" xmlns="http://www.w3.org/2000/svg">
<g clip-path="url(#clip0)">
<path d="M5.09486 16.6183C7.56067 19.5659 10.529 21.8867 13.9169 23.5288C15.2068 24.1401 16.9318 24.8653 18.8537 24.9896C18.9728 24.9948 19.0868 25 19.2059 25C20.4958 25 21.5319 24.5545 22.3762 23.6376C22.3814 23.6324 22.3918 23.622 22.397 23.6117C22.6974 23.2491 23.0393 22.9227 23.3968 22.5756C23.6402 22.3425 23.8889 22.099 24.1272 21.8504C25.2306 20.7004 25.2306 19.2395 24.1168 18.1258L21.0035 15.0124C20.4751 14.4633 19.8431 14.1732 19.18 14.1732C18.5169 14.1732 17.8798 14.4633 17.3358 15.0073L15.4813 16.8618C15.3104 16.7634 15.1342 16.6753 14.9685 16.5924C14.7612 16.4888 14.5696 16.3904 14.3986 16.2816C12.7099 15.2093 11.1765 13.8106 9.71048 12.0131C8.9697 11.0754 8.4724 10.288 8.12532 9.48508C8.61226 9.04476 9.06813 8.58371 9.50845 8.13303C9.66386 7.97244 9.82445 7.81185 9.98503 7.65126C10.5445 7.09179 10.845 6.44426 10.845 5.78637C10.845 5.12847 10.5497 4.48094 9.98503 3.92147L8.44131 2.37775C8.26 2.19644 8.08906 2.02031 7.91293 1.839C7.57103 1.48674 7.21359 1.12412 6.86133 0.797762C6.32776 0.274554 5.70095 0 5.03787 0C4.37998 0 3.74799 0.274555 3.1937 0.802942L1.25627 2.74036C0.551757 3.44488 0.152876 4.29963 0.0699916 5.28906C-0.0284336 6.52714 0.199498 7.84293 0.79005 9.43328C1.6966 11.8939 3.06419 14.1784 5.09486 16.6183ZM1.33398 5.39784C1.39614 4.70887 1.66034 4.13386 2.15764 3.63655L4.0847 1.70949C4.38516 1.41939 4.7167 1.26917 5.03787 1.26917C5.35387 1.26917 5.67505 1.41939 5.97032 1.71985C6.3174 2.04103 6.64376 2.37775 6.99602 2.73518C7.17215 2.91649 7.35346 3.0978 7.53477 3.28429L9.07849 4.82801C9.39966 5.14919 9.56543 5.47555 9.56543 5.79673C9.56543 6.1179 9.39966 6.44426 9.07849 6.76544C8.9179 6.92603 8.75731 7.09179 8.59672 7.25238C8.11496 7.73933 7.66427 8.20037 7.16697 8.6407C7.15661 8.65106 7.15143 8.65624 7.14107 8.6666C6.7111 9.09656 6.77845 9.5058 6.88205 9.81662C6.88723 9.83216 6.89241 9.84252 6.89759 9.85806C7.29647 10.8164 7.85076 11.7281 8.71587 12.816C10.2699 14.7327 11.9069 16.2194 13.7097 17.3643C13.9324 17.5093 14.1707 17.6233 14.3934 17.7373C14.6007 17.8409 14.7923 17.9393 14.9633 18.0481C14.984 18.0584 14.9995 18.0688 15.0203 18.0792C15.1912 18.1672 15.357 18.2087 15.5227 18.2087C15.9372 18.2087 16.2065 17.9445 16.2946 17.8564L18.232 15.919C18.5325 15.6185 18.8588 15.4579 19.18 15.4579C19.5737 15.4579 19.8949 15.7014 20.0969 15.919L23.2206 19.0375C23.8423 19.6591 23.8371 20.3326 23.2051 20.9905C22.9875 21.2236 22.7596 21.4463 22.5161 21.6794C22.1535 22.0317 21.7753 22.3943 21.4334 22.8036C20.8377 23.4459 20.128 23.7464 19.2111 23.7464C19.123 23.7464 19.0298 23.7412 18.9417 23.736C17.2426 23.6272 15.6626 22.9642 14.4763 22.3995C11.2542 20.8402 8.42577 18.6283 6.07911 15.8206C4.14687 13.4946 2.84662 11.3293 1.98669 9.0085C1.45312 7.58392 1.25109 6.43908 1.33398 5.39784Z" fill="#13273F"/>
</g>
<defs>
<clipPath id="clip0">
<rect width="25" height="25" fill="white"/>
</clipPath>
</defs>
</svg>
