<svg width="40" height="40" viewBox="0 0 40 40" fill="none" xmlns="http://www.w3.org/2000/svg">
<path d="M19.999 0C11.8797 0 5.27344 6.60629 5.27344 14.7264C5.27344 16.8444 5.70695 18.8667 6.56129 20.7375C10.2431 28.7941 17.3021 37.3003 19.3784 39.7151C19.534 39.8956 19.7608 39.9996 19.9994 39.9996C20.2381 39.9996 20.4649 39.8956 20.6204 39.7151C22.6959 37.3007 29.7549 28.7949 33.438 20.7375C34.2927 18.8667 34.7258 16.8444 34.7258 14.7264C34.725 6.60629 28.1187 0 19.999 0ZM19.999 22.3753C15.7814 22.3753 12.3497 18.9436 12.3497 14.726C12.3497 10.5079 15.7814 7.07623 19.999 7.07623C24.2167 7.07623 27.6484 10.5079 27.6484 14.726C27.6488 18.9436 24.2171 22.3753 19.999 22.3753Z" fill="#13273F"/>
</svg>
